        <svg xmlns="http://www.w3.org/2000/svg" viewBox="0 0 609 422" width="280" style="margin-bottom: 2rem;">
            <g transform="translate(204.09397329678671, 0)">
                <path fill="#EC0016" d="M194.14 5.87A19.974 19.974 0 0 0 180 0H20.1c-2.63-.01-5.25.5-7.68 1.5-2.44 1-4.65 2.47-6.52 4.34a20.027 20.027 0 0 0-4.36 6.51A19.883 19.883 0 0 0 0 20.04v100.18c.03 5.32 2.16 10.42 5.92 14.17a20.1 20.1 0 0 0 14.18 5.86H180c5.32-.03 10.41-2.16 14.16-5.95 3.75-3.78 5.85-8.9 5.84-14.23V20.04c0-5.31-2.11-10.41-5.86-14.17Zm-8.73 114.21c.03.73-.09 1.46-.35 2.15s-.65 1.31-1.15 1.85c-.5.53-1.11.96-1.77 1.26-.67.3-1.39.46-2.12.47H20.1c-.74 0-1.47-.15-2.15-.44a5.54 5.54 0 0 1-1.81-1.25c-.51-.53-.91-1.17-1.18-1.86-.26-.69-.39-1.43-.36-2.17V20.04c-.04-.75.08-1.5.34-2.2s.66-1.34 1.17-1.89c.51-.54 1.13-.98 1.82-1.27.69-.3 1.43-.45 2.17-.45H180c.74.02 1.47.18 2.14.48.68.3 1.28.74 1.79 1.28.5.54.89 1.18 1.15 1.88.25.7.36 1.44.33 2.17v100.04Z"></path>
                <path fill="#EC0016" d="M61.17 116.03H27.53v-91.8h33.64c23.7 0 36.8 14.87 36.8 45.48.04 26.57-8.86 46.1-36.8 46.32Zm14.62-44.42c0-18.49-2-32.94-21.8-32.94h-4.46v62.47h7.82c11.66 0 18.44-9.34 18.44-29.53ZM156.01 68c4.59-1.39 8.62-4.22 11.5-8.06 2.88-3.85 4.46-8.51 4.5-13.32 0-1.9-.38-22.36-26.16-22.36h-38.24v91.77h32.4c8.58 0 35.32 0 35.32-25.81 0-6.45-2.64-18.59-19.32-22.22Zm-26.6-29.59h6.92c9.86 0 13.78 3.45 13.78 11.06 0 6.01-4.32 11.1-12 11.1h-8.7V38.41Zm9.02 62.73h-9.02V77.56h9.62c11.42 0 14.22 6.67 14.22 11.8 0 11.78-11.24 11.78-14.82 11.78Z"></path>
            </g>
            <path d="M0 0L0-77.79L53.71-77.79L53.71-62.70L19.58-62.70L19.58-43.98L48.15-43.98L48.15-29.85L19.58-29.85L19.58 0L0 0Z" fill="#000000" transform="translate(0, 271.532874510143)"></path>
            <path d="M83.14 1.71Q67.30 1.71 59.87-5.51Q52.43-12.73 52.43-28.03L52.43-28.03L52.43-28.46Q52.43-43.12 59.92-51.04Q67.41-58.96 81.00-58.96L81.00-58.96Q93.84-58.96 100.37-51.52Q106.89-44.08 106.89-29.64L106.89-29.64L106.89-24.61L71.05-24.61Q71.37-19.47 72.65-16.75Q73.94-14.02 76.88-12.89Q79.82-11.77 85.17-11.77L85.17-11.77Q89.77-11.77 93.68-12.57Q97.58-13.38 103.68-15.52L103.68-15.52L103.68-2.25Q98.23-0.21 93.36 0.75Q88.49 1.71 83.14 1.71L83.14 1.71ZM71.05-34.45L89.02-34.45Q88.60-41.20 86.78-43.92Q84.96-46.65 80.68-46.65L80.68-46.65Q75.86-46.65 73.72-43.87Q71.58-41.09 71.05-34.45L71.05-34.45Z" fill="#000000" transform="translate(0, 271.532874510143)"></path>
            <path d="M115.56-55.21Q125.94-55.53 129.36-58.74L129.36-58.74L133.54-58.74L133.54-47.72Q138.14-53.18 142.58-55.69Q147.02-58.21 151.94-58.42L151.94-58.42L151.94-42.27Q142.20-41.62 133.54-39.16L133.54-39.16L133.54 0L115.56 0L115.56-55.21Z" fill="#000000" transform="translate(0, 271.532874510143)"></path>
            <path d="M159.00-55.21Q169.38-55.53 172.81-58.74L172.81-58.74L176.98-58.74L176.98-48.26Q182.01-53.61 186.71-56.01Q191.42-58.42 196.99-58.42L196.99-58.42Q204.26-58.42 208.33-53.61Q212.39-48.79 212.39-40.23L212.39-40.23L212.39 0L194.42 0L194.42-36.49Q194.42-43.87 187.46-43.87L187.46-43.87Q184.90-43.87 182.70-43.12Q180.51-42.37 176.98-40.45L176.98-40.45L176.98 0L159.00 0L159.00-55.21Z" fill="#000000" transform="translate(0, 271.532874510143)"></path>
            <path d="M240.96 0.11L217.64-57.03L236.47-57.03L248.77-24.40L261.29-57.03L276.70-57.03L253.91 0.11L240.96 0.11Z" fill="#000000" transform="translate(0, 271.532874510143)"></path>
            <path d="M310.62 1.71Q294.78 1.71 287.35-5.51Q279.91-12.73 279.91-28.03L279.91-28.03L279.91-28.46Q279.91-43.12 287.40-51.04Q294.89-58.96 308.48-58.96L308.48-58.96Q321.32-58.96 327.85-51.52Q334.38-44.08 334.38-29.64L334.38-29.64L334.38-24.61L298.53-24.61Q298.85-19.47 300.13-16.75Q301.42-14.02 304.36-12.89Q307.30-11.77 312.65-11.77L312.65-11.77Q317.25-11.77 321.16-12.57Q325.07-13.38 331.16-15.52L331.16-15.52L331.16-2.25Q325.71-0.21 320.84 0.75Q315.97 1.71 310.62 1.71L310.62 1.71ZM298.53-34.45L316.51-34.45Q316.08-41.20 314.26-43.92Q312.44-46.65 308.16-46.65L308.16-46.65Q303.34-46.65 301.20-43.87Q299.06-41.09 298.53-34.45L298.53-34.45Z" fill="#000000" transform="translate(0, 271.532874510143)"></path>
            <path d="M343.04-55.21Q353.42-55.53 356.84-58.74L356.84-58.74L361.02-58.74L361.02-47.72Q365.62-53.18 370.06-55.69Q374.50-58.21 379.42-58.42L379.42-58.42L379.42-42.27Q369.68-41.62 361.02-39.16L361.02-39.16L361.02 0L343.04 0L343.04-55.21Z" fill="#000000" transform="translate(0, 271.532874510143)"></path>
            <path d="M386.48-77.36Q396.97-77.58 400.29-80.89L400.29-80.89L404.46-80.89L404.46-34.45L421.69-57.03L440.52-57.03L422.22-35.63L442.23 0L422.65 0L409.81-22.90L404.46-16.26L404.46 0L386.48 0L386.48-77.36Z" fill="#000000" transform="translate(0, 271.532874510143)"></path>
            <path d="M474.97 1.71Q459.14 1.71 451.70-5.51Q444.26-12.73 444.26-28.03L444.26-28.03L444.26-28.46Q444.26-43.12 451.75-51.04Q459.24-58.96 472.83-58.96L472.83-58.96Q485.67-58.96 492.20-51.52Q498.73-44.08 498.73-29.64L498.73-29.64L498.73-24.61L462.88-24.61Q463.20-19.47 464.49-16.75Q465.77-14.02 468.71-12.89Q471.66-11.77 477.01-11.77L477.01-11.77Q481.61-11.77 485.51-12.57Q489.42-13.38 495.52-15.52L495.52-15.52L495.52-2.25Q490.06-0.21 485.19 0.75Q480.32 1.71 474.97 1.71L474.97 1.71ZM462.88-34.45L480.86-34.45Q480.43-41.20 478.61-43.92Q476.79-46.65 472.51-46.65L472.51-46.65Q467.70-46.65 465.56-43.87Q463.42-41.09 462.88-34.45L462.88-34.45Z" fill="#000000" transform="translate(0, 271.532874510143)"></path>
            <path d="M507.39-77.36Q517.88-77.58 521.20-80.89L521.20-80.89L525.37-80.89L525.37-48.26Q530.29-53.71 535.05-56.12Q539.81-58.53 545.38-58.53L545.38-58.53Q552.65-58.53 556.72-53.66Q560.79-48.79 560.79-40.23L560.79-40.23L560.79 0L542.81 0L542.81-36.70Q542.81-40.23 541.05-42.05Q539.28-43.87 535.86-43.87L535.86-43.87Q533.29-43.87 531.09-43.12Q528.90-42.37 525.37-40.45L525.37-40.45L525.37 0L507.39 0L507.39-77.36Z" fill="#000000" transform="translate(0, 271.532874510143)"></path>
            <path d="M571.81-55.21Q582.19-55.53 585.61-58.74L585.61-58.74L589.78-58.74L589.78-47.72Q594.38-53.18 598.83-55.69Q603.27-58.21 608.19-58.42L608.19-58.42L608.19-42.27Q598.45-41.62 589.78-39.16L589.78-39.16L589.78 0L571.81 0L571.81-55.21Z" fill="#000000" transform="translate(0, 271.532874510143)"></path>
            <path d="M0 0L0-77.79L27.39-77.79Q43.87-77.79 52.32-67.68Q60.78-57.57 60.78-39.27L60.78-39.27L60.78-39.16Q60.78-20.54 52.16-10.27Q43.55 0 26.96 0L26.96 0L0 0ZM10.38-7.81L26.21-7.81Q38.20-7.81 43.98-15.41Q49.75-23.00 49.75-38.73L49.75-38.73L49.75-38.84Q49.75-55.00 44.08-62.49Q38.41-69.98 26.21-69.98L26.21-69.98L10.38-69.98L10.38-7.81Z" fill="#000000" transform="translate(70.727, 389.232874510143)"></path>
            <path d="M95.98 1.60Q70.51 1.60 70.51-27.50L70.51-27.50L70.51-27.71Q70.51-41.84 76.99-49.11Q83.46-56.39 95.98-56.39L95.98-56.39Q108.61-56.39 115.08-49.17Q121.55-41.94 121.55-27.61L121.55-27.61L121.55-27.39Q121.55 1.60 95.98 1.60L95.98 1.60ZM95.98-5.46Q104.11-5.46 107.48-10.49Q110.85-15.52 110.85-27.39L110.85-27.39L110.85-27.61Q110.85-39.38 107.43-44.35Q104.00-49.33 95.98-49.33L95.98-49.33Q90.52-49.33 87.31-47.13Q84.10-44.94 82.66-40.07Q81.21-35.20 81.21-27.07L81.21-27.07L81.21-26.86Q81.21-15.30 84.64-10.38Q88.06-5.46 95.98-5.46L95.98-5.46Z" fill="#000000" transform="translate(70.727, 389.232874510143)"></path>
            <path d="M133.86-54.03Q136.32-54.14 138.56-54.84Q140.81-55.53 142.10-56.71L142.10-56.71L143.81-56.71L143.81-47.19Q153.54-55.64 162.10-56.39L162.10-56.39L162.10-46.76Q150.98-45.69 143.81-42.05L143.81-42.05L143.81 0L133.86 0L133.86-54.03Z" fill="#000000" transform="translate(70.727, 389.232874510143)"></path>
            <path d="M191.00 1.60Q182.01 1.60 177.73-2.89Q173.45-7.38 173.45-16.69L173.45-16.69L173.45-47.83L165.21-47.83L165.21-55.43L167.24-55.43Q170.99-55.43 172.81-56.82Q174.62-58.21 175.69-62.06L175.69-62.06L177.19-67.41L183.40-67.41L183.40-55.43L198.59-55.43L198.59-47.83L183.40-47.83L183.40-15.30Q183.40-10.27 185.54-8.08Q187.68-5.88 192.49-5.88L192.49-5.88Q194.31-5.88 195.92-6.15Q197.52-6.42 200.09-7.28L200.09-7.28L200.09-0.11Q197.63 0.86 195.60 1.23Q193.56 1.60 191.00 1.60L191.00 1.60Z" fill="#000000" transform="translate(70.727, 389.232874510143)"></path>
            <path d="M209.72-54.03Q212.18-54.14 214.43-54.84Q216.67-55.53 217.96-56.71L217.96-56.71L219.67-56.71L219.67-47.83Q225.56-52.75 229.62-54.57Q233.69-56.39 238.50-56.39L238.50-56.39Q243.32-56.39 246.15-54.25Q248.99-52.11 250.81-47.19L250.81-47.19Q257.23-52.22 261.94-54.30Q266.64-56.39 271.57-56.39L271.57-56.39Q278.20-56.39 281.78-51.89Q285.37-47.40 285.37-39.27L285.37-39.27L285.37 0L275.42 0L275.42-39.05Q275.42-48.15 268.25-48.15L268.25-48.15Q264.61-48.15 261.56-47.03Q258.51-45.90 252.52-42.27L252.52-42.27L252.52 0L242.57 0L242.57-38.41Q242.57-43.55 240.80-45.85Q239.04-48.15 235.19-48.15L235.19-48.15Q231.55-48.15 228.61-47.03Q225.66-45.90 219.67-42.27L219.67-42.27L219.67 0L209.72 0L209.72-54.03Z" fill="#000000" transform="translate(70.727, 389.232874510143)"></path>
            <path d="M315.33 1.60Q300.13 1.60 300.13-17.01L300.13-17.01L300.13-54.89L310.09-55.53L310.09-16.80Q310.09-11.02 312.07-8.56Q314.04-6.10 318.54-6.10L318.54-6.10Q322.50-6.10 325.92-7.54Q329.35-8.99 334.59-12.84L334.59-12.84L334.59-54.89L344.54-55.53L344.54 0L338.01 0L335.44-7.81Q330.09-2.67 325.49-0.54Q320.89 1.60 315.33 1.60L315.33 1.60Z" fill="#000000" transform="translate(70.727, 389.232874510143)"></path>
            <path d="M360.38-54.03Q362.84-54.14 365.08-54.84Q367.33-55.53 368.62-56.71L368.62-56.71L370.33-56.71L370.33-47.62Q376.43-52.43 380.92-54.41Q385.41-56.39 390.55-56.39L390.55-56.39Q397.72-56.39 401.73-51.89Q405.74-47.40 405.74-39.27L405.74-39.27L405.74 0L395.79 0L395.79-37.88Q395.79-43.23 393.71-45.69Q391.62-48.15 387.23-48.15L387.23-48.15Q383.38-48.15 380.06-46.92Q376.75-45.69 370.33-41.73L370.33-41.73L370.33 0L360.38 0L360.38-54.03Z" fill="#000000" transform="translate(70.727, 389.232874510143)"></path>
            <path d="M437.09 1.60Q427.89 1.60 422.70-5.83Q417.51-13.27 417.51-26.54L417.51-26.54L417.51-26.64Q417.51-39.80 423.19-48.10Q428.86-56.39 439.34-56.39L439.34-56.39Q447.90-56.39 456.78-49.76L456.78-49.76L456.78-78.22Q459.24-78.32 461.49-79.02Q463.74-79.72 465.02-80.89L465.02-80.89L466.73-80.89L466.73 0L460.21 0L457.53-7.92Q451.54-2.57 446.99-0.48Q442.44 1.60 437.09 1.60L437.09 1.60ZM440.63-6.31Q444.48-6.31 447.90-7.65Q451.33-8.99 456.78-12.73L456.78-12.73L456.78-43.66Q452.29-46.44 449.08-47.45Q445.87-48.47 441.80-48.47L441.80-48.47Q434.63-48.47 431.48-43.39Q428.32-38.31 428.32-27.07L428.32-27.07L428.32-26.96Q428.32-15.73 431.16-11.02Q433.99-6.31 440.63-6.31L440.63-6.31Z" fill="#000000" transform="translate(70.727, 389.232874510143)"></path>
        </svg>
