                <svg xmlns="http://www.w3.org/2000/svg" viewBox="0 0 598 141" height="100%">
                    <g transform="translate(0, 0)">
                    <path fill="#EC0016" d="M194.14 5.87A19.974 19.974 0 0 0 180 0H20.1c-2.63-.01-5.25.5-7.68 1.5-2.44 1-4.65 2.47-6.52 4.34a20.027 20.027 0 0 0-4.36 6.51A19.883 19.883 0 0 0 0 20.04v100.18c.03 5.32 2.16 10.42 5.92 14.17a20.1 20.1 0 0 0 14.18 5.86H180c5.32-.03 10.41-2.16 14.16-5.95 3.75-3.78 5.85-8.9 5.84-14.23V20.04c0-5.31-2.11-10.41-5.86-14.17Zm-8.73 114.21c.03.73-.09 1.46-.35 2.15s-.65 1.31-1.15 1.85c-.5.53-1.11.96-1.77 1.26-.67.3-1.39.46-2.12.47H20.1c-.74 0-1.47-.15-2.15-.44a5.54 5.54 0 0 1-1.81-1.25c-.51-.53-.91-1.17-1.18-1.86-.26-.69-.39-1.43-.36-2.17V20.04c-.04-.75.08-1.5.34-2.2s.66-1.34 1.17-1.89c.51-.54 1.13-.98 1.82-1.27.69-.3 1.43-.45 2.17-.45H180c.74.02 1.47.18 2.14.48.68.3 1.28.74 1.79 1.28.5.54.89 1.18 1.15 1.88.25.7.36 1.44.33 2.17v100.04Z"></path>
                    <path fill="#EC0016" d="M61.17 116.03H27.53v-91.8h33.64c23.7 0 36.8 14.87 36.8 45.48.04 26.57-8.86 46.1-36.8 46.32Zm14.62-44.42c0-18.49-2-32.94-21.8-32.94h-4.46v62.47h7.82c11.66 0 18.44-9.34 18.44-29.53ZM156.01 68c4.59-1.39 8.62-4.22 11.5-8.06 2.88-3.85 4.46-8.51 4.5-13.32 0-1.9-.38-22.36-26.16-22.36h-38.24v91.77h32.4c8.58 0 35.32 0 35.32-25.81 0-6.45-2.64-18.59-19.32-22.22Zm-26.6-29.59h6.92c9.86 0 13.78 3.45 13.78 11.06 0 6.01-4.32 11.1-12 11.1h-8.7V38.41Zm9.02 62.73h-9.02V77.56h9.62c11.42 0 14.22 6.67 14.22 11.8 0 11.78-11.24 11.78-14.82 11.78Z"></path>
                    </g>
                    <path d="M0 0L0-44.50L30.73-44.50L30.73-35.87L11.20-35.87L11.20-25.16L27.54-25.16L27.54-17.08L11.20-17.08L11.20 0L0 0Z" fill="#000000" transform="translate(250.0000667580332, 59.25028158657369)"></path>
                    <path d="M47.56 0.98Q38.50 0.98 34.25-3.15Q29.99-7.28 29.99-16.04L29.99-16.04L29.99-16.28Q29.99-24.67 34.28-29.20Q38.56-33.73 46.34-33.73L46.34-33.73Q53.68-33.73 57.41-29.47Q61.15-25.22 61.15-16.96L61.15-16.96L61.15-14.08L40.64-14.08Q40.83-11.14 41.56-9.58Q42.30-8.02 43.98-7.38Q45.66-6.73 48.72-6.73L48.72-6.73Q51.36-6.73 53.59-7.19Q55.82-7.65 59.31-8.88L59.31-8.88L59.31-1.29Q56.19-0.12 53.41 0.43Q50.62 0.98 47.56 0.98L47.56 0.98ZM40.64-19.71L50.93-19.71Q50.68-23.57 49.64-25.13Q48.60-26.69 46.15-26.69L46.15-26.69Q43.40-26.69 42.17-25.10Q40.95-23.50 40.64-19.71L40.64-19.71Z" fill="#000000" transform="translate(250.0000667580332, 59.25028158657369)"></path>
                    <path d="M66.11-31.58Q72.04-31.77 74.00-33.60L74.00-33.60L76.39-33.60L76.39-27.30Q79.02-30.42 81.56-31.86Q84.10-33.30 86.92-33.42L86.92-33.42L86.92-24.18Q81.35-23.81 76.39-22.40L76.39-22.40L76.39 0L66.11 0L66.11-31.58Z" fill="#000000" transform="translate(250.0000667580332, 59.25028158657369)"></path>
                    <path d="M90.96-31.58Q96.90-31.77 98.85-33.60L98.85-33.60L101.24-33.60L101.24-27.61Q104.12-30.67 106.81-32.04Q109.50-33.42 112.69-33.42L112.69-33.42Q116.85-33.42 119.18-30.67Q121.50-27.91 121.50-23.01L121.50-23.01L121.50 0L111.22 0L111.22-20.87Q111.22-25.10 107.24-25.10L107.24-25.10Q105.77-25.10 104.52-24.67Q103.26-24.24 101.24-23.14L101.24-23.14L101.24 0L90.96 0L90.96-31.58Z" fill="#000000" transform="translate(250.0000667580332, 59.25028158657369)"></path>
                    <path d="M137.84 0.06L124.50-32.62L135.27-32.62L142.31-13.96L149.47-32.62L158.29-32.62L145.25 0.06L137.84 0.06Z" fill="#000000" transform="translate(250.0000667580332, 59.25028158657369)"></path>
                    <path d="M177.69 0.98Q168.63 0.98 164.38-3.15Q160.13-7.28 160.13-16.04L160.13-16.04L160.13-16.28Q160.13-24.67 164.41-29.20Q168.69-33.73 176.47-33.73L176.47-33.73Q183.81-33.73 187.55-29.47Q191.28-25.22 191.28-16.96L191.28-16.96L191.28-14.08L170.78-14.08Q170.96-11.14 171.69-9.58Q172.43-8.02 174.11-7.38Q175.80-6.73 178.86-6.73L178.86-6.73Q181.49-6.73 183.72-7.19Q185.96-7.65 189.44-8.88L189.44-8.88L189.44-1.29Q186.32-0.12 183.54 0.43Q180.75 0.98 177.69 0.98L177.69 0.98ZM170.78-19.71L181.06-19.71Q180.81-23.57 179.77-25.13Q178.73-26.69 176.28-26.69L176.28-26.69Q173.53-26.69 172.31-25.10Q171.08-23.50 170.78-19.71L170.78-19.71Z" fill="#000000" transform="translate(250.0000667580332, 59.25028158657369)"></path>
                    <path d="M196.24-31.58Q202.18-31.77 204.14-33.60L204.14-33.60L206.52-33.60L206.52-27.30Q209.15-30.42 211.69-31.86Q214.24-33.30 217.05-33.42L217.05-33.42L217.05-24.18Q211.48-23.81 206.52-22.40L206.52-22.40L206.52 0L196.24 0L196.24-31.58Z" fill="#000000" transform="translate(250.0000667580332, 59.25028158657369)"></path>
                    <path d="M221.09-44.25Q227.09-44.38 228.99-46.27L228.99-46.27L231.37-46.27L231.37-19.71L241.23-32.62L252.00-32.62L241.53-20.38L252.98 0L241.78 0L234.43-13.10L231.37-9.30L231.37 0L221.09 0L221.09-44.25Z" fill="#000000" transform="translate(250.0000667580332, 59.25028158657369)"></path>
                    <path d="M271.71 0.98Q262.65 0.98 258.40-3.15Q254.14-7.28 254.14-16.04L254.14-16.04L254.14-16.28Q254.14-24.67 258.43-29.20Q262.71-33.73 270.49-33.73L270.49-33.73Q277.83-33.73 281.57-29.47Q285.30-25.22 285.30-16.96L285.30-16.96L285.30-14.08L264.79-14.08Q264.98-11.14 265.71-9.58Q266.45-8.02 268.13-7.38Q269.81-6.73 272.87-6.73L272.87-6.73Q275.51-6.73 277.74-7.19Q279.97-7.65 283.46-8.88L283.46-8.88L283.46-1.29Q280.34-0.12 277.56 0.43Q274.77 0.98 271.71 0.98L271.71 0.98ZM264.79-19.71L275.08-19.71Q274.83-23.57 273.79-25.13Q272.75-26.69 270.30-26.69L270.30-26.69Q267.55-26.69 266.32-25.10Q265.10-23.50 264.79-19.71L264.79-19.71Z" fill="#000000" transform="translate(250.0000667580332, 59.25028158657369)"></path>
                    <path d="M290.26-44.25Q296.26-44.38 298.15-46.27L298.15-46.27L300.54-46.27L300.54-27.61Q303.36-30.73 306.08-32.10Q308.80-33.48 311.99-33.48L311.99-33.48Q316.15-33.48 318.48-30.70Q320.80-27.91 320.80-23.01L320.80-23.01L320.80 0L310.52 0L310.52-21.00Q310.52-23.01 309.51-24.06Q308.50-25.10 306.54-25.10L306.54-25.10Q305.07-25.10 303.82-24.67Q302.56-24.24 300.54-23.14L300.54-23.14L300.54 0L290.26 0L290.26-44.25Z" fill="#000000" transform="translate(250.0000667580332, 59.25028158657369)"></path>
                    <path d="M327.11-31.58Q333.04-31.77 335.00-33.60L335.00-33.60L337.39-33.60L337.39-27.30Q340.02-30.42 342.56-31.86Q345.10-33.30 347.92-33.42L347.92-33.42L347.92-24.18Q342.35-23.81 337.39-22.40L337.39-22.40L337.39 0L327.11 0L327.11-31.58Z" fill="#000000" transform="translate(250.0000667580332, 59.25028158657369)"></path>
                    <path d="M0 0L0-44.50L15.67-44.50Q25.10-44.50 29.93-38.72Q34.77-32.93 34.77-22.46L34.77-22.46L34.77-22.40Q34.77-11.75 29.84-5.88Q24.91 0 15.42 0L15.42 0L0 0ZM5.94-4.47L15.00-4.47Q21.85-4.47 25.16-8.81Q28.46-13.16 28.46-22.16L28.46-22.16L28.46-22.22Q28.46-31.46 25.22-35.75Q21.97-40.03 15.00-40.03L15.00-40.03L5.94-40.03L5.94-4.47Z" fill="#000000" transform="translate(250.0000667580332, 126.25028158657369)"></path>
                    <path d="M54.91 0.92Q40.34 0.92 40.34-15.73L40.34-15.73L40.34-15.85Q40.34-23.93 44.04-28.10Q47.74-32.26 54.91-32.26L54.91-32.26Q62.13-32.26 65.83-28.13Q69.53-23.99 69.53-15.79L69.53-15.79L69.53-15.67Q69.53 0.92 54.91 0.92L54.91 0.92ZM54.91-3.12Q59.56-3.12 61.49-6.00Q63.41-8.88 63.41-15.67L63.41-15.67L63.41-15.79Q63.41-22.53 61.45-25.37Q59.50-28.22 54.91-28.22L54.91-28.22Q51.78-28.22 49.95-26.96Q48.11-25.71 47.28-22.92Q46.46-20.14 46.46-15.49L46.46-15.49L46.46-15.36Q46.46-8.75 48.42-5.94Q50.38-3.12 54.91-3.12L54.91-3.12Z" fill="#000000" transform="translate(250.0000667580332, 126.25028158657369)"></path>
                    <path d="M76.57-30.91Q77.98-30.97 79.27-31.37Q80.55-31.77 81.29-32.44L81.29-32.44L82.27-32.44L82.27-26.99Q87.84-31.83 92.73-32.26L92.73-32.26L92.73-26.75Q86.37-26.14 82.27-24.06L82.27-24.06L82.27 0L76.57 0L76.57-30.91Z" fill="#000000" transform="translate(250.0000667580332, 126.25028158657369)"></path>
                    <path d="M109.26 0.92Q104.12 0.92 101.67-1.65Q99.22-4.22 99.22-9.55L99.22-9.55L99.22-27.36L94.51-27.36L94.51-31.71L95.67-31.71Q97.81-31.71 98.85-32.50Q99.89-33.30 100.51-35.50L100.51-35.50L101.36-38.56L104.91-38.56L104.91-31.71L113.61-31.71L113.61-27.36L104.91-27.36L104.91-8.75Q104.91-5.88 106.14-4.62Q107.36-3.37 110.12-3.37L110.12-3.37Q111.16-3.37 112.08-3.52Q112.99-3.67 114.46-4.16L114.46-4.16L114.46-0.06Q113.05 0.49 111.89 0.70Q110.73 0.92 109.26 0.92L109.26 0.92Z" fill="#000000" transform="translate(250.0000667580332, 126.25028158657369)"></path>
                    <path d="M119.97-30.91Q121.38-30.97 122.66-31.37Q123.95-31.77 124.68-32.44L124.68-32.44L125.66-32.44L125.66-27.36Q129.03-30.18 131.36-31.22Q133.68-32.26 136.44-32.26L136.44-32.26Q139.19-32.26 140.81-31.03Q142.44-29.81 143.48-26.99L143.48-26.99Q147.15-29.87 149.84-31.06Q152.54-32.26 155.35-32.26L155.35-32.26Q159.15-32.26 161.20-29.69Q163.25-27.12 163.25-22.46L163.25-22.46L163.25 0L157.55 0L157.55-22.34Q157.55-27.54 153.45-27.54L153.45-27.54Q151.37-27.54 149.63-26.90Q147.88-26.26 144.46-24.18L144.46-24.18L144.46 0L138.76 0L138.76-21.97Q138.76-24.91 137.75-26.23Q136.74-27.54 134.54-27.54L134.54-27.54Q132.46-27.54 130.78-26.90Q129.09-26.26 125.66-24.18L125.66-24.18L125.66 0L119.97 0L119.97-30.91Z" fill="#000000" transform="translate(250.0000667580332, 126.25028158657369)"></path>
                    <path d="M180.39 0.92Q171.69 0.92 171.69-9.73L171.69-9.73L171.69-31.40L177.39-31.77L177.39-9.61Q177.39-6.30 178.52-4.90Q179.65-3.49 182.22-3.49L182.22-3.49Q184.49-3.49 186.45-4.32Q188.40-5.14 191.40-7.35L191.40-7.35L191.40-31.40L197.10-31.77L197.10 0L193.36 0L191.89-4.47Q188.83-1.53 186.20-0.31Q183.57 0.92 180.39 0.92L180.39 0.92Z" fill="#000000" transform="translate(250.0000667580332, 126.25028158657369)"></path>
                    <path d="M206.16-30.91Q207.56-30.97 208.85-31.37Q210.13-31.77 210.87-32.44L210.87-32.44L211.85-32.44L211.85-27.24Q215.34-29.99 217.91-31.13Q220.48-32.26 223.42-32.26L223.42-32.26Q227.52-32.26 229.81-29.69Q232.11-27.12 232.11-22.46L232.11-22.46L232.11 0L226.42 0L226.42-21.67Q226.42-24.73 225.22-26.14Q224.03-27.54 221.52-27.54L221.52-27.54Q219.32-27.54 217.42-26.84Q215.52-26.14 211.85-23.87L211.85-23.87L211.85 0L206.16 0L206.16-30.91Z" fill="#000000" transform="translate(250.0000667580332, 126.25028158657369)"></path>
                    <path d="M250.04 0.92Q244.78 0.92 241.81-3.34Q238.84-7.59 238.84-15.18L238.84-15.18L238.84-15.24Q238.84-22.77 242.09-27.51Q245.33-32.26 251.33-32.26L251.33-32.26Q256.23-32.26 261.31-28.46L261.31-28.46L261.31-44.74Q262.71-44.81 264.00-45.20Q265.28-45.60 266.02-46.27L266.02-46.27L267.00-46.27L267.00 0L263.26 0L261.73-4.53Q258.31-1.47 255.70-0.28Q253.10 0.92 250.04 0.92L250.04 0.92ZM252.06-3.61Q254.27-3.61 256.23-4.38Q258.18-5.14 261.31-7.28L261.31-7.28L261.31-24.97Q258.73-26.57 256.90-27.15Q255.06-27.73 252.74-27.73L252.74-27.73Q248.64-27.73 246.83-24.82Q245.02-21.91 245.02-15.49L245.02-15.49L245.02-15.42Q245.02-9.00 246.65-6.30Q248.27-3.61 252.06-3.61L252.06-3.61Z" fill="#000000" transform="translate(250.0000667580332, 126.25028158657369)"></path>
                    </svg>
